<svg xmlns="http://www.w3.org/2000/svg" width="133.37mm" height="147.15mm" viewBox="0 0 378.06 417.11"><path d="M332.72,136.19c-1.19,1.9-2.77,3.67-3.51,5.74-3.28,9.14-6.76,18.24-9.33,27.59-3,11.08-5.35,22.36-7.74,33.61-1.54,7.29-5.88,10.66-13.65,10-7.47-.62-11.51-4.61-11.31-12.09.27-10.17,1-20.33,1.62-30.49,1-16.82,2.16-33.63,3.25-50.44.4-6.09.78-12.19,1.24-18.28.28-3.7-.38-4.35-3.92-3.5s-7.15,1.42-10.52,2.68c-1.64.6-3.72,2.29-4,3.81-4.37,21.16-8,42.46-7.43,64.18a113.91,113.91,0,0,0,6.52,34.89c.15.43.33.84.47,1.28.86,2.82,2.06,5.72-.64,8.2-2.3,2.11-7,2.42-10.27.46-7-4.21-12.52-10-13.36-18.28-1.35-13.26-1.81-26.62-2.38-39.94-.21-4.72.36-9.48.56-14.08A79.19,79.19,0,0,0,225.12,166c-7.19,11.63-11.08,24.43-13.43,37.78-.18,1-.34,2-.56,3-1.64,7.22-4.9,9.69-11.32,8.61-7.07-1.2-10.22-5.37-9.77-12.27.92-14.1,1.56-28.23,2.46-42.33.61-9.59,1.4-19.17,2.25-28.74.33-3.78,2.44-5.62,6.21-5.93,9.42-.77,14.4,4.29,13.4,13.64-.35,3.37-.82,6.73-1.1,10.1a29.16,29.16,0,0,0,.25,4.26l.93.19a19.08,19.08,0,0,0,1.47-2.38c3.47-8,9.67-13.27,17.37-16.93,7.14-3.39,10.18-2.64,15.19,3.94.33-3.06.53-5.7.92-8.31.79-5.37,1.71-10.71,2.52-16.07.69-4.61-.25-5.38-4.67-4-7.9,2.44-15.73,5.13-23.72,7.22-8.36,2.18-13-.44-15.47-7.84-1.61-4.88-.36-8.34,4.4-10.16s9.58-2.69,14.27-4.33c8.64-3,17.2-6.23,25.76-9.44a9.19,9.19,0,0,0,6.1-7.94c1-8,1.86-15.92,2.54-23.9.49-5.77,2.65-9.13,7.17-10.27,6.54-1.65,13.14,2.81,13.17,9.46,0,6.41-.62,12.84-1.21,19.24-.47,5.22.43,6.15,5.57,4.87,11.38-2.86,9.32-.26,11-11.83,2.71-19.12,5.09-38.29,7.68-57.43,1-7.11,7.78-10.35,14-6.72,3,1.8,3.59,4.89,3.42,8-.45,8.35-.92,16.71-1.72,25-1,10.79-2.43,21.55-3.63,32.33-.43,3.78-.32,3.73,3.57,3,17.33-3.37,15.33-1.64,32.72-4.71A47.67,47.67,0,0,1,366,65c7.64.83,11.84,5.83,12.1,13.48.14,3.9-1.57,5.66-5.54,5.39-2.36-.17-4.69-.69-7-1.06C356,81.28,347,84,338,86.13c-13.44,3.19-7.49,1.52-20.91,4.77-2.79.68-4.38,2-4.62,5-1.14,14.31-2.36,28.61-3.49,42.92a31.74,31.74,0,0,0,.27,4.55l1,.31a37.61,37.61,0,0,0,2.37-3.72,164.26,164.26,0,0,1,19.44-31.43c5.4-6.75,11.71-8.41,18.15-4.88a11.3,11.3,0,0,1,6.34,10.8c-.2,8.6-.62,17.19-.76,25.78-.19,12.22-.31,24.44-.26,36.66,0,6.33,2.89,11.51,7.32,15.93,4.83,4.8,5.27,6.17,3.38,9.46-2.79,4.87-8.23,7.5-13.14,6.35-8.65-2-14.57-8.37-15.38-18.08-1.37-16.23-2.11-32.53-3.11-48.8a19.37,19.37,0,0,0,0-2c-.17-1-.48-2-.73-3Z" fill="#4a2611"/><path d="M182.62,206.23a76.85,76.85,0,0,1-3.47-9.16c-2.75-10.16-1.46-20.4-.34-30.65a110.22,110.22,0,0,0,.66-17.13,8.58,8.58,0,0,0-6.56-8.23c-3.95-1-7.39.64-9.93,3.79-4.07,5-8.14,10-12,15.17-6.34,8.41-12.48,17-18.82,25.37-1.23,1.62-3,2.83-4.89,4.56a10.66,10.66,0,0,1-.5-2,6.73,6.73,0,0,1,.18-2c4.25-13.85,8.63-27.65,16.18-40.15,2.64-4.37,8.52-15.23,13.27-13.69,3.85,1.25,6.15.59,8-2.31,2.34-3.63,2.15-7.12-.55-9.89-5.42-5.54-13.78-6.85-20.2-2.5a34.06,34.06,0,0,0-8.64,8.46,225.62,225.62,0,0,0-18,32.3c-2.35-4.09-6.44-5.93-11.17-6.17a86.44,86.44,0,0,0-18.19.86c-8.66,1.43-17.17,3.76-25.74,5.72-6.86,1.57-12.48-.58-10.62-9.49.16-.8.13-1.64.33-2.42C54.41,135.83,57.45,125,60,114.1c1.12-4.84,3.66-8.26,8-9.91,6.11-2.31,12.34-4.69,18.74-5.77,11.78-2,23.71-3.06,35.59-4.46,4-.47,5.08-1.66,4.82-5.7a9.07,9.07,0,0,0-7.71-8.8,35,35,0,0,0-10.81-.84C97.82,80,87.07,81.75,76.31,83.46c-7.42,1.17-8.61.16-7.93-7.09.23-2.43-.17-4.6-3-5.13-6.3-1.16-13.76,0-15.89,7.77-2.32,8.43-8.37,13.27-16.11,16.44-3.25,1.33-6.56,2.56-9.7,4.13-4.52,2.25-5.84,5.15-4.68,9.34,1.55,5.54,3.41,6.93,8.94,6.7a34.25,34.25,0,0,1,3.51,0c5.31.31,6.86,1.9,6,7.07q-2.84,16.94-6.15,33.81c-2.2,11.12-9.36,17.42-20.17,20a27.77,27.77,0,0,0-7.58,2.67A7.43,7.43,0,0,0,.1,183.62c-.89,5.25,4.18,13.23,11.62,11.37,3.87-1,7.72-2,11.61-2.83s5.21-.06,5.86,3.79c.58,3.46.65,7,1.25,10.46.88,5.06,1.47,10.27,3.19,15.05,4.1,11.4,12.58,18.35,24.42,20.34,13.5,2.27,24.49-3.43,33.9-12.62,2.82-2.76,4.69-6.17,4.22-10.39-.54-4.87-5.17-7.17-9.25-4.52a31.3,31.3,0,0,0-3.76,3.16c-5,4.53-10.46,8.28-17,10.16-7.37,2.11-10.72,1.1-12.66-6.18-2.35-8.76-3.35-17.88-4.79-26.88-1.15-7.23,2.07-12.16,8.44-15.38a86.19,86.19,0,0,1,42.17-9.1c4.36-.28,8.73-.44,13.07-.88a98.41,98.41,0,0,0-3.49,10.65,91.9,91.9,0,0,0-2.9,20.33c-.17,6.75,5.09,12.24,12,14.44,6.57,2.09,11.83.09,15.83-5.29,4.73-6.36,9.31-12.82,13.93-19.27,2.29-3.19,4.51-6.44,6.76-9.67l1.19.28c.4,2.74.65,5.51,1.23,8.22a57.74,57.74,0,0,0,2.74,10.41c3.4,8,12.69,13.52,20,12.33C183.3,211,184,209.64,182.62,206.23Z" fill="#4a2611"/><path d="M145.92,288.89a80.34,80.34,0,0,1,8.34.95c7.6,1.7,15.32,3.1,22.69,5.54,8.9,2.94,13.3,10.08,14.86,19.06,2.68,15.37-1.53,29.19-10,41.82-15.16,22.62-34.65,40.87-57.46,55.58-8.19,5.27-17.47,6.09-26.82,4.64-2.53-.39-6.05-2.5-6.76-4.61-1-3.09,2.84-4.34,5.21-5.67a214,214,0,0,0,70.12-63.51,65.55,65.55,0,0,0,8.53-17.24c3.51-10.59-2.21-19.34-13.27-21.14-8-1.3-15.84,0-23.43,2.5-3.63,1.19-7,3.13-10.49,4.78-11.36,5.4-16.61,14.65-16.47,27,.1,8.91.65,17.81,1.07,26.71.14,3.17.88,6.56-2.67,8.42s-7,1.05-10.24-1.11c-5-3.33-7.89-8.1-7.91-13.9,0-9.48.45-19,1.15-28.43,1.45-19.49,3.19-39,4.8-58.44a4.14,4.14,0,0,0,0-1.36c-.35-1.25-.78-2.48-1.17-3.72A19,19,0,0,0,92.58,269c-2.24,2.23-4.14,4.82-6.47,6.95-3.22,3-8.44,3.52-11,1.53-3-2.35-4.43-8.7-1.79-12,4.57-5.7,9.33-11.46,14.94-16,15.88-13,33.22-23.58,53.18-29.22,7-2,14.23-3.35,21.46-1.63,7.77,1.84,14.24,5.92,16.17,14.18.73,3.13-.17,7-1.33,10.16-3.57,9.83-10.16,17.83-16.67,25.84-3.86,4.74-7.76,9.46-11.54,14.27A66.89,66.89,0,0,0,145.92,288.89Zm-30.31-6.15c-.09,4.25,1.26,6.06,3.23,6.17,10.75-1.52,25.18-26.5,31.79-39a42.05,42.05,0,0,0,3.49-8.79c1-3.9-.46-5.4-4.4-4.65a32.68,32.68,0,0,0-12.19,4.7C123.18,251.08,115.28,264.76,115.61,282.74Z" fill="#4a2611"/><path d="M216.7,300.79c1.36-2.15,2.77-3.79,3.54-5.68,4-9.76,7.68-19.61,11.63-29.37,2.42-6,5.06-11.87,7.69-17.76,1.65-3.7,4.56-6.16,8.62-6.21a8.61,8.61,0,0,1,8.47,6.27,113.32,113.32,0,0,1,3.78,16.72c1.56,10.2,3,20.41,8.24,29.53a79.93,79.93,0,0,0,5.73,7.95c2.22,2.92,1.87,4.44-1.53,5.95-6.79,3-17.19.1-22.53-6.76a57.67,57.67,0,0,1-5.33-9.35c-1.26-2.46-2.22-5.08-3.32-7.62h-1c-.64,1.47-1.33,2.92-1.89,4.42-3.48,9.34-6.86,18.71-10.43,28-2.16,5.63-5.78,9.71-12.34,10.09a17.37,17.37,0,0,1-18.78-15.39c-3-22,.5-43.28,8-64a29.38,29.38,0,0,1,5.92-9.39,15.88,15.88,0,0,1,20.23-2.35c3.05,1.93,4,5.27,2.79,9.25-1,3.48-3.62,4.37-6.83,4.29-5.39-.13-5.45-.16-6.91,5-4,13.93-4.64,28.28-5.17,42.64a6.76,6.76,0,0,0,.35,2A11.31,11.31,0,0,0,216.7,300.79Z" fill="#4a2611"/><path d="M295.79,247c.29-1.25.62-2.5.87-3.76,1.87-9.43,7.26-16.47,15-21.76,4.24-2.89,7.52-2.55,10.85.35,2.3,2,2.65,4.21.76,6.53-16.15,19.8-19.62,42.86-17.47,67.4.09,1,.19,2,.22,3,.23,7.11-2.31,10.34-8.62,11-7.1.74-11.37-2.5-12.7-9.18-3.09-15.51-6.4-31-9.51-46.49-1.56-7.75-2.94-15.53-4.29-23.32-.68-3.94.83-6.27,4.56-7.57,8.91-3.1,14.9.5,16.37,9.86.52,3.34.91,6.71,1.55,10A22,22,0,0,0,295,247Z" fill="#4a2611"/><path d="M154.12,241.17a42.57,42.57,0,0,1-3.48,8.79c-6.62,12.45-21,37.42-31.79,39-2-.11-3.33-1.92-3.24-6.17-.33-18,7.57-31.66,21.92-41.52a32.68,32.68,0,0,1,12.19-4.7C153.66,235.77,155.16,237.27,154.12,241.17Z" fill="#95c230"/></svg>